<svg width="64" height="46" viewBox="0 0 64 46" fill="none" xmlns="http://www.w3.org/2000/svg">
<path d="M61 26C62.6569 26 64 24.6569 64 23C64 21.3431 62.6569 20 61 20L61 26ZM0.878665 20.8787C-0.292908 22.0502 -0.292909 23.9497 0.878664 25.1213L19.9705 44.2132C21.1421 45.3848 23.0416 45.3848 24.2132 44.2132C25.3848 43.0416 25.3848 41.1421 24.2132 39.9706L7.24263 23L24.2132 6.02943C25.3848 4.85786 25.3848 2.95837 24.2132 1.78679C23.0416 0.61522 21.1421 0.61522 19.9705 1.78679L0.878665 20.8787ZM61 20L2.99999 20L2.99998 26L61 26L61 20Z" />
</svg>
