<svg width="55" height="53" viewBox="0 0 55 53" fill="none" xmlns="http://www.w3.org/2000/svg">
<line x1="3" y1="2" x2="12" y2="2" stroke="#5A646E" stroke-width="6" stroke-linecap="round"/>
<line x1="12.4938" y1="2.40687" x2="18.4069" y2="34.5062" stroke="#5A646E" stroke-width="6" stroke-linecap="round"/>
<line x1="20.998" y1="34.5" x2="44.0024" y2="34.5" stroke="#5A646E" stroke-width="6" stroke-linecap="square"/>
<line x1="20.998" y1="34.5" x2="44.0024" y2="34.5" stroke="#5A646E" stroke-width="6" stroke-linecap="square"/>
<path d="M47.8799 29.2661L47.0734 34.5044" stroke="#5A646E" stroke-width="6" stroke-linecap="round"/>
<path d="M47.8799 29.2661L47.0734 34.5044" stroke="#5A646E" stroke-width="6" stroke-linecap="round"/>
<path d="M34.5 10H31.5V16H34.5V10ZM51 16C52.6569 16 54 14.6569 54 13C54 11.3431 52.6569 10 51 10V16ZM34.5 16L51 16V10L34.5 10V16Z" fill="#5A646E"/>
<path d="M34.5 10H31.5V16H34.5V10ZM51 16C52.6569 16 54 14.6569 54 13C54 11.3431 52.6569 10 51 10V16ZM34.5 16L51 16V10L34.5 10V16Z" fill="#5A646E"/>
<path d="M17 13H18" stroke="#5A646E" stroke-width="6" stroke-linecap="square"/>
<path d="M17 13H18" stroke="#5A646E" stroke-width="6" stroke-linecap="square"/>
<line x1="51.0089" y1="13.4213" x2="49.9213" y2="20.4911" stroke="#5A646E" stroke-width="6" stroke-linecap="round"/>
<line x1="51.0089" y1="13.4213" x2="49.9213" y2="20.4911" stroke="#5A646E" stroke-width="6" stroke-linecap="round"/>
<path d="M31.5 16L26.7369 10L36.2631 10L31.5 16Z" fill="#5A646E"/>
<path d="M21 10L24.4641 16H17.5359L21 10Z" fill="#5A646E"/>
<circle cx="24" cy="47" r="6" fill="#5A646E"/>
<circle cx="42" cy="47" r="6" fill="#5A646E"/>
</svg>
